<svg width="136" height="66" viewBox="0 0 136 66" fill="none" xmlns="http://www.w3.org/2000/svg">
<g clip-path="url(#clip0_47_86)">
<path fill-rule="evenodd" clip-rule="evenodd" d="M8.92996 53.7501H0C0 53.7501 1.6792 52.917 1.6792 51.3125V24.8385C1.6792 23.0103 0 22.5552 0 22.5552H18.6956V27.8083C18.6956 27.8083 18.2391 26.0573 16.7843 26.0573H7.25075V34.6505H16.9468V39.4409C16.9468 39.4409 16.645 38.2992 15.2676 38.2992H7.25075V51.2354C7.25075 52.9865 8.92996 53.7424 8.92996 53.7424V53.7501Z" fill="white"/>
<path fill-rule="evenodd" clip-rule="evenodd" d="M123.48 54.3441C116.902 54.321 112.336 50.3252 112.336 46.2137V24.8385C112.336 23.3189 110.502 22.5552 110.502 22.5552H119.51C119.51 22.5552 117.676 23.3188 117.676 24.7613V46.2137C117.676 48.2656 120.547 50.896 123.325 50.8728C126.049 50.8574 128.819 48.281 128.819 46.2137V24.7999C128.819 23.2031 126.985 22.5937 126.985 22.5937H135.992C135.992 22.5937 134.158 23.2031 134.158 24.7999V46.2137C134.158 50.2095 129.6 54.3595 123.472 54.3441H123.48Z" fill="white"/>
<path fill-rule="evenodd" clip-rule="evenodd" d="M32.8179 54.3441C26.2404 54.321 21.6748 50.3252 21.6748 46.2137V24.8385C21.6748 23.3189 19.8408 22.5552 19.8408 22.5552H28.8482C28.8482 22.5552 27.0142 23.3188 27.0142 24.7613V46.2137C27.0142 48.2656 29.8851 50.896 32.6631 50.8728C35.387 50.8574 38.1573 48.281 38.1573 46.2137V24.7613C38.1573 23.1646 36.3233 22.5552 36.3233 22.5552H45.3307C45.3307 22.5552 43.4967 23.1646 43.4967 24.7613V46.2137C43.4967 50.2095 38.9389 54.3595 32.8102 54.3441H32.8179Z" fill="white"/>
<path fill-rule="evenodd" clip-rule="evenodd" d="M56.6286 22.563C56.6286 22.563 54.7946 23.3267 54.7946 24.9234V57.7923C54.7946 57.7923 54.7018 63.5006 45.0289 66.0076C44.8277 66.0616 49.3778 61.2173 49.3778 57.7923C49.3778 55.509 49.432 26.1422 49.3778 24.9234C49.3005 23.2495 47.5439 22.563 47.5439 22.563H56.6286Z" fill="white"/>
<path fill-rule="evenodd" clip-rule="evenodd" d="M65.783 51.3203C65.8604 52.9943 67.6169 53.6808 67.6169 53.6808H58.5322C58.5322 53.6808 60.3662 52.9171 60.3662 51.3203H60.3739C60.3894 41.8863 60.4049 25.8028 60.3662 24.9234C60.2888 23.2495 58.5322 22.563 58.5322 22.563H67.6169C67.6169 22.563 65.783 23.3267 65.783 24.9234V51.3203Z" fill="white"/>
<path fill-rule="evenodd" clip-rule="evenodd" d="M82.2732 26.0573V51.3125C82.3506 52.9865 84.1071 53.673 84.1071 53.673H75.0224C75.0224 53.673 76.8564 52.9093 76.8564 51.3125H76.8641C76.8719 43.213 76.8873 30.1225 76.8641 26.0573H70.8205C68.9092 26.0573 67.8413 28.1863 67.8413 28.1863L69.6753 22.5552H90.971L89.671 27.7312C89.671 27.7312 89.5936 26.0573 87.7596 26.0573H82.2654H82.2732Z" fill="white"/>
<path fill-rule="evenodd" clip-rule="evenodd" d="M55.8007 13.237C56.8995 15.6206 60.018 17.4257 63.3455 17.4257C68.1742 17.4257 72.0897 13.5224 72.0897 8.70898C72.0897 3.89551 68.1742 0 63.3455 0C60.7145 0 58.3543 1.15708 56.7525 2.99299L56.8144 7.60589C57.093 4.4432 60.5442 2.64586 63.3455 2.723C66.6652 2.81557 69.3581 5.40743 69.3581 8.71669C69.3581 12.0259 66.6652 14.7104 63.3455 14.7104C61.2097 14.7104 59.3758 13.561 58.3079 11.8948L58.0293 11.3626C56.8299 9.14867 54.4001 7.43619 51.5911 7.43619C47.5981 7.43619 44.3635 10.6606 44.3635 14.641C44.3635 18.6213 47.5981 21.8457 51.5911 21.8457C53.8816 21.8457 55.9168 20.7889 57.2477 19.1304V15.8906L54.6399 18.0582C53.8584 18.5982 52.7208 19.0533 51.5988 19.0533C49.1535 19.0533 47.1725 17.0785 47.1725 14.641C47.1725 12.2034 49.1535 10.2286 51.5988 10.2286C53.4096 10.2286 54.8876 11.3471 55.762 13.129L55.8162 13.2293L55.8007 13.237Z" fill="white"/>
<path fill-rule="evenodd" clip-rule="evenodd" d="M107.268 27.4306V23.5891C107.268 23.0569 103.778 22.2623 101.565 22.2392C99.9629 22.2238 90.6692 22.6017 90.6692 30.7013C90.6692 37.3584 97.6878 39.9811 98.6087 40.4362C99.5218 40.8913 104.675 43.1747 104.675 45.9131C104.675 49.4923 101.627 51.2742 97.9586 51.2742C94.2907 51.2742 91.3115 48.9061 90.4757 48.1964C90.4138 48.1424 91.7371 53.6733 91.7371 53.6733C91.7371 53.6733 95.0491 54.5064 97.8426 54.5064C99.1426 54.5064 110.131 54.5064 110.131 45.836C110.131 39.256 103.375 36.8956 102.044 36.2476C100.814 35.6536 96.055 33.81 96.055 30.3928C96.055 27.6543 99.3361 25.371 101.781 25.371C105.217 25.371 106.44 26.4741 107.276 27.4229L107.268 27.4306Z" fill="white"/>
</g>
<defs>
<clipPath id="clip0_47_86">
<rect width="136" height="66" fill="white"/>
</clipPath>
</defs>
</svg>
