<svg width="122" height="48" viewBox="0 0 122 48" fill="none" xmlns="http://www.w3.org/2000/svg">
<g clip-path="url(#clip0_43_23)">
<path fill-rule="evenodd" clip-rule="evenodd" d="M25.39 35.5227V19.0074C25.39 11.5682 21.3532 7.23926 13.0969 7.23926C8.53032 7.23926 5.5164 8.18507 2.42941 9.54922L4.18296 14.6784C6.72196 13.6235 9.06004 12.9323 12.1836 12.9323C16.6405 12.9323 19.0699 15.0422 19.0699 18.8982V19.5894C16.8962 18.8982 14.7226 18.4253 11.3433 18.4253C4.82228 18.4253 0 21.3719 0 27.3923V27.5015C0 33.0854 4.65788 36.1047 9.97335 36.1047C14.2111 36.1047 17.1337 34.3586 19.0334 32.085V35.5045H25.39V35.5227ZM19.1795 25.4462C19.1795 28.9202 16.0012 31.3029 11.7634 31.3029C8.73125 31.3029 6.35664 29.8296 6.35664 27.1741V27.0831C6.35664 24.2275 8.74951 22.5905 12.7681 22.5905C15.2523 22.5905 17.5356 23.0634 19.1795 23.7V25.4462Z" fill="white"/>
<path fill-rule="evenodd" clip-rule="evenodd" d="M51.401 27.2831V27.174C51.401 22.1721 46.7797 20.3168 42.7063 19.0618C39.4184 18.0069 36.4045 17.152 36.4045 15.1512V15.0421C36.4045 13.4051 37.8292 12.241 40.3317 12.241C42.6698 12.241 45.5193 13.2414 48.2227 14.8784L50.7617 10.3494C47.7843 8.38503 43.9667 7.18457 40.4778 7.18457C34.9066 7.18457 30.5228 10.404 30.5228 15.6787V15.7878C30.5228 21.1171 35.1258 22.8087 39.2723 23.9728C42.5602 24.9731 45.5193 25.7189 45.5193 27.8833V27.9925C45.5193 29.8477 43.9302 31.0118 41.172 31.0118C38.4138 31.0118 35.0162 29.8477 32.0023 27.5923L29.1345 31.9212C32.6234 34.6677 37.0255 36.0864 41.0076 36.0864C46.8345 36.0864 51.3828 33.1762 51.3828 27.3195" fill="white"/>
<path fill-rule="evenodd" clip-rule="evenodd" d="M63.0183 13.1322H70.544V7.63926H63.0183V0H56.6069V7.65745H53.0632V13.1504H56.6069V27.8105C56.6069 33.9401 59.9496 35.9955 64.6623 35.9955C67.0369 35.9955 68.8452 35.468 70.4344 34.5585V29.3384C69.1558 29.975 67.8954 30.2842 66.4706 30.2842C64.2969 30.2842 63.0183 29.2838 63.0183 26.8102V13.1322Z" fill="white"/>
<path fill-rule="evenodd" clip-rule="evenodd" d="M80.7732 24.9184C80.7732 17.5338 84.7004 13.8961 90.3082 13.8961H90.6735V7.12987C85.7416 6.9116 82.5085 9.76723 80.7549 13.9324V7.65734H74.3435V35.5224H80.7549V24.9184" fill="white"/>
<path fill-rule="evenodd" clip-rule="evenodd" d="M122 21.5898C122 13.5686 115.68 7.0752 107.113 7.0752C98.5463 7.0752 92.1714 13.6777 92.1714 21.6989C92.1714 29.7201 98.4732 36.1589 107.004 36.1589C115.534 36.1589 122 29.5564 122 21.5898ZM115.589 21.6989C115.589 26.6099 112.301 30.6114 107.113 30.6114C101.926 30.6114 98.5828 26.5553 98.5828 21.5898C98.5828 16.6243 101.871 12.6773 107.022 12.6773C112.173 12.6773 115.607 16.7334 115.607 21.6989" fill="white"/>
<path fill-rule="evenodd" clip-rule="evenodd" d="M83.5131 48C66.4159 48 51.8212 42.9799 30.0844 42.1615C12.0374 41.4885 0.383545 42.7981 0.383545 42.7981C0.383545 42.7981 10.6857 38.0326 36.8794 38.0326C55.9859 38.0326 65.6304 42.4525 85.8877 42.4525C103.935 42.4525 114.712 39.3786 120.21 36.0137C120.21 36.0137 111.113 48.0182 83.4948 48.0182" fill="white"/>
</g>
<defs>
<clipPath id="clip0_43_23">
<rect width="122" height="48" fill="white"/>
</clipPath>
</defs>
</svg>
