<svg width="174" height="62" viewBox="0 0 174 62" fill="none" xmlns="http://www.w3.org/2000/svg">
<path d="M20.8 52.7202C27.1623 52.7202 32.32 47.5625 32.32 41.2002C32.32 34.8379 27.1623 29.6802 20.8 29.6802C14.4377 29.6802 9.28003 34.8379 9.28003 41.2002C9.28003 47.5625 14.4377 52.7202 20.8 52.7202Z" fill="white"/>
<path d="M35.6 25.28L50.24 0H27.68C21.44 0.16 19.76 1.44 17.36 5.6L2.88 30.72C1.04 33.76 0 37.36 0 41.2C0 48.8 4 55.36 10.08 59.04C13.2 60.88 16.88 62 20.8 62C32.24 62 41.6 52.72 41.6 41.2C41.6 37.28 40.48 33.6 38.64 30.48L35.6 25.28ZM27.84 5.36H41.04L32.56 20L29.68 14.96L24.32 5.68C25.04 5.44 26.16 5.36 27.84 5.36ZM20.8 56.64C17.04 56.64 13.52 55.28 10.8 53.04C7.44 50.24 5.28 45.92 5.28 41.2C5.28 38.32 6.08 35.68 7.44 33.36C7.44 33.36 20.72 10.32 20.8 10.24L26 19.2L34.16 33.36C35.52 35.68 36.32 38.32 36.32 41.2C36.24 49.76 29.36 56.64 20.8 56.64Z" fill="white"/>
<path d="M108.4 28.8802C108.4 25.6002 106 23.6802 102.32 23.6802H96.56C96 23.6802 95.52 24.1602 95.52 24.6402V38.3202H99.6V34.6402C99.6 34.4002 99.84 34.1602 100.08 34.1602H101.52L104.32 38.3202H109.04L105.68 33.4402C107.36 32.5602 108.4 31.0402 108.4 28.8802ZM104.32 29.0402C104.32 30.1602 103.44 30.9602 102 30.9602H99.6V27.7602C99.6 27.4402 99.92 27.1202 100.24 27.1202H102C103.52 27.0402 104.32 27.7602 104.32 29.0402Z" fill="white"/>
<path d="M117.92 23.3604C113.44 23.3604 110 26.8004 110 30.9604C110 35.2004 113.36 38.5604 117.84 38.5604C122.32 38.5604 125.76 35.1204 125.76 30.9604C125.84 26.7204 122.48 23.3604 117.92 23.3604ZM121.68 31.0404C121.68 33.1204 120.24 34.9604 117.92 34.9604C115.6 34.9604 114.16 33.1204 114.16 31.0404V30.9604C114.16 28.8804 115.68 27.0404 117.84 27.0404C120.16 27.0404 121.68 28.8804 121.68 31.0404Z" fill="white"/>
<path d="M137.76 24.5601V31.3601L131.76 23.6001H129.04C128.48 23.6001 128 24.0801 128 24.6401V38.2401H132V30.2401L138.24 38.2401H141.76V23.6801H138.8C138.24 23.6801 137.76 24.0801 137.76 24.5601Z" fill="white"/>
<path d="M80.7202 24.6401V27.2001H85.1202V38.2401H89.2002V27.6801C89.2002 27.4401 89.4402 27.2001 89.6802 27.2001H93.6002V23.6001H81.7602C81.2002 23.6801 80.7202 24.1601 80.7202 24.6401Z" fill="white"/>
<path d="M67.1201 24.6401V38.2401H78.8801V34.8001H71.1201V33.0401C71.1201 32.8001 71.3601 32.4801 71.6001 32.4801H77.9201V29.2801H71.0401V27.6001C71.0401 27.3601 71.2801 27.0401 71.5201 27.0401H78.8001V23.6001H68.1601C67.6001 23.6801 67.1201 24.0801 67.1201 24.6401Z" fill="white"/>
<path d="M167.92 29.2005C165.92 28.7205 165.36 28.4805 165.36 27.7605C165.36 27.2005 165.84 26.8005 166.8 26.8005C167.68 26.8005 168.64 27.0405 169.6 27.5205C169.6 27.5205 169.84 27.6005 169.92 27.6805C170.16 27.8405 170.48 27.9205 170.88 27.8405C171.2 27.7605 171.36 27.5205 171.6 27.2005L172.88 25.4405C171.28 24.1605 169.36 23.5205 166.88 23.5205C163.36 23.5205 161.2 25.5205 161.2 28.2405V28.3205C161.2 31.3605 163.6 32.2405 166.72 32.9605C168.72 33.4405 169.2 33.7605 169.2 34.3205C169.2 34.9605 168.64 35.3605 167.52 35.3605C166.24 35.3605 165.04 35.0405 163.84 34.3205C163.52 34.1605 163.12 33.9205 162.56 34.0805C162.32 34.1605 162.16 34.2405 162 34.4805L160.48 36.3205C162.24 37.9205 164.72 38.7205 167.36 38.7205C170.88 38.7205 173.28 36.9605 173.28 33.9205V33.8405C173.36 31.0405 171.28 29.9205 167.92 29.2005Z" fill="white"/>
<path d="M147.92 38.3202L148.64 36.4802C148.72 36.1602 148.96 35.9202 149.28 35.8402H154.48L155.52 38.3202H159.84L153.68 23.6802H150.32C149.84 23.7602 149.6 24.0002 149.44 24.3202L143.52 38.3202H147.92ZM151.76 28.4802L153.36 32.6402H150.08L151.76 28.4802Z" fill="white"/>
<path d="M56.64 38.3202V34.6402C56.64 34.4802 56.8 34.2402 56.96 34.1602H58.8C59.92 34.1602 60.96 34.0802 62 33.6802C63.12 33.2802 64.08 32.6402 64.64 31.6002C65.28 30.6402 65.44 29.4402 65.36 28.3202C65.28 27.4402 65.04 26.6402 64.56 25.9202C63.52 24.4002 61.76 23.7602 60 23.6802H54.32C53.6 23.6802 52.48 23.6802 52.48 24.6402V38.3202H56.64ZM61.36 29.0402C61.36 30.1602 60.48 30.9602 59.04 30.9602H56.64V27.7602C56.64 27.4402 56.96 27.1202 57.28 27.1202H59.04C60.48 27.0402 61.36 27.7602 61.36 29.0402Z" fill="white"/>
</svg>
