<svg width="338" height="28" viewBox="0 0 338 28" fill="none" xmlns="http://www.w3.org/2000/svg">
<g clip-path="url(#clip0_49_237)">
<path d="M0 22.0723V6.46416H2.0064V10.7209L1.80262 9.97992C2.24152 8.79749 2.96257 7.88308 3.99712 7.25245C5.016 6.63758 6.30135 6.32227 7.80615 6.32227V8.37181C7.80615 8.37181 7.6494 8.37181 7.57102 8.37181C7.49265 8.37181 7.41427 8.37181 7.3359 8.37181C5.7057 8.37181 4.42035 8.87632 3.49552 9.86956C2.5707 10.8786 2.10045 12.2975 2.10045 14.1421V22.1196H0V22.0723Z" fill="white"/>
<path d="M17.4777 22.2298C15.8632 22.2298 14.4368 21.8829 13.2141 21.205C11.9915 20.5271 11.0353 19.5811 10.3456 18.3829C9.65588 17.1847 9.31104 15.8131 9.31104 14.2681C9.31104 12.723 9.64021 11.3514 10.2986 10.169C10.9569 8.97077 11.8661 8.04059 13.0103 7.36267C14.1703 6.68474 15.4556 6.33789 16.8977 6.33789C18.3398 6.33789 19.6565 6.66897 20.7851 7.33113C21.9137 7.9933 22.8072 8.92348 23.4656 10.1217C24.1239 11.3199 24.4374 12.7073 24.4374 14.2681C24.4374 14.3627 24.4374 14.473 24.4374 14.5834C24.4374 14.6937 24.4374 14.8041 24.4374 14.9302H10.9099V13.3537H23.2931L22.4624 13.9843C22.4624 12.8492 22.2116 11.8559 21.7413 10.9573C21.2554 10.0744 20.6127 9.38068 19.7819 8.89194C18.9512 8.38744 17.995 8.15095 16.9134 8.15095C15.8318 8.15095 14.8913 8.40321 14.0449 8.89194C13.1984 9.38068 12.5401 10.0744 12.0698 10.973C11.5996 11.8717 11.3645 12.8807 11.3645 14.0316V14.3627C11.3645 15.5451 11.6309 16.6014 12.1482 17.5001C12.6655 18.3987 13.4022 19.1082 14.3427 19.6127C15.2675 20.1172 16.3491 20.3694 17.5561 20.3694C18.4966 20.3694 19.3901 20.196 20.2052 19.8649C21.0203 19.5338 21.7256 19.0136 22.3213 18.3199L23.4969 19.6915C22.8072 20.5271 21.9451 21.1577 20.9105 21.5992C19.876 22.0406 18.7317 22.2455 17.4934 22.2455L17.4777 22.2298Z" fill="white"/>
<path d="M25.8323 8.21442V6.46442H35.4411V8.21442H25.8323ZM33.1682 22.2302C31.7104 22.2302 30.5818 21.836 29.7981 21.032C29.0143 20.2437 28.6224 19.1243 28.6224 17.6739V3.01172H30.7229V17.5478C30.7229 18.4622 30.958 19.1716 31.4282 19.6604C31.8828 20.1649 32.5568 20.4014 33.419 20.4014C34.3438 20.4014 35.1119 20.1333 35.7232 19.5973L36.4599 21.1108C36.0367 21.4892 35.5508 21.773 34.9551 21.9464C34.3751 22.1198 33.7795 22.2144 33.1682 22.2144V22.2302Z" fill="white"/>
<path d="M47.6521 6.30631C48.9061 6.30631 50.019 6.54279 50.9752 7.03153C51.9313 7.52027 52.6837 8.26126 53.2167 9.2545C53.7653 10.2477 54.0318 11.4932 54.0318 13.0068V22.0878H51.9313V13.2275C51.9313 11.5878 51.5238 10.3423 50.7087 9.49099C49.8936 8.65541 48.7336 8.22973 47.2602 8.22973C46.1473 8.22973 45.1911 8.45045 44.376 8.89189C43.5609 9.33333 42.9182 9.97973 42.4793 10.8311C42.0404 11.6824 41.8053 12.6914 41.8053 13.8739V22.0878H39.7048V0H41.8053V10.7365L41.3977 9.93243C41.8993 8.7973 42.6831 7.91441 43.7647 7.26802C44.8462 6.62162 46.1316 6.30631 47.6364 6.30631H47.6521Z" fill="white"/>
<path d="M60.5525 3.01112C60.1136 3.01112 59.7531 2.86923 59.4553 2.56968C59.1574 2.27013 59.0164 1.90752 59.0164 1.49761C59.0164 1.0877 59.1574 0.725084 59.4553 0.441301C59.7531 0.157517 60.1136 0.015625 60.5525 0.015625C60.9914 0.015625 61.3519 0.157517 61.6498 0.425535C61.9476 0.709319 62.0887 1.05617 62.0887 1.46608C62.0887 1.90752 61.9476 2.27013 61.6654 2.56968C61.3833 2.86923 61.0071 3.01112 60.5525 3.01112ZM59.4866 22.0877V6.46382H61.5871V22.0719H59.4866V22.0877Z" fill="white"/>
<path d="M74.801 6.30664C76.055 6.30664 77.1679 6.54313 78.1241 7.03187C79.0803 7.5206 79.8327 8.2616 80.3656 9.25484C80.9142 10.2481 81.1807 11.4936 81.1807 13.0071V22.0882H79.0803V13.2278C79.0803 11.5882 78.6727 10.3427 77.8576 9.49133C77.0425 8.65574 75.8826 8.23006 74.4091 8.23006C73.2962 8.23006 72.34 8.45078 71.5249 8.89223C70.7098 9.33367 70.0671 9.98006 69.6282 10.8314C69.1893 11.6828 68.9542 12.6918 68.9542 13.8742V22.0882H66.8538V6.4643H68.8602V10.7526L68.531 9.94853C69.0326 8.8134 69.8163 7.93051 70.8979 7.28412C71.9795 6.63772 73.2648 6.32241 74.7696 6.32241L74.801 6.30664Z" fill="white"/>
<path d="M86.6357 22.0721V0H88.7362V22.0721H86.6357ZM88.2973 18.0203L88.36 15.3086L98.0315 6.4482H100.602L93.7679 13.0225L92.5766 14.0315L88.2816 18.0203H88.2973ZM98.6741 22.0721L92.2004 13.9527L93.5641 12.3131L101.261 22.0721H98.6898H98.6741Z" fill="white"/>
<path d="M134.037 22.0723V6.46416H136.043V10.7209L135.839 9.97992C136.278 8.79749 136.999 7.88308 138.034 7.25245C139.053 6.63758 140.338 6.32227 141.843 6.32227V8.37181C141.843 8.37181 141.686 8.37181 141.608 8.37181C141.53 8.37181 141.451 8.37181 141.373 8.37181C139.743 8.37181 138.457 8.87632 137.532 9.86956C136.608 10.8786 136.137 12.2975 136.137 14.1421V22.1196H134.037V22.0723Z" fill="white"/>
<path d="M151.515 22.2298C149.9 22.2298 148.474 21.8829 147.251 21.205C146.028 20.5271 145.072 19.5811 144.382 18.3829C143.693 17.1847 143.348 15.8131 143.348 14.2681C143.348 12.723 143.677 11.3514 144.335 10.169C144.994 8.97077 145.903 8.04059 147.047 7.36267C148.207 6.68474 149.493 6.33789 150.935 6.33789C152.377 6.33789 153.693 6.66897 154.822 7.33113C155.951 7.9933 156.844 8.92348 157.502 10.1217C158.161 11.3199 158.474 12.7073 158.474 14.2681C158.474 14.3627 158.474 14.473 158.474 14.5834C158.474 14.6937 158.474 14.8041 158.474 14.9302H144.962V13.3537H157.346L156.515 13.9843C156.515 12.8492 156.264 11.8559 155.794 10.9573C155.324 10.0586 154.665 9.38068 153.834 8.89194C153.004 8.38744 152.048 8.15095 150.966 8.15095C149.884 8.15095 148.944 8.40321 148.097 8.89194C147.251 9.38068 146.593 10.0744 146.122 10.973C145.652 11.8717 145.417 12.8807 145.417 14.0316V14.3627C145.417 15.5451 145.683 16.6014 146.201 17.5001C146.718 18.3987 147.455 19.1082 148.395 19.6127C149.32 20.1172 150.402 20.3694 151.609 20.3694C152.549 20.3694 153.443 20.196 154.258 19.8649C155.073 19.5338 155.778 19.0136 156.374 18.3199L157.549 19.6915C156.86 20.5271 155.998 21.1577 154.963 21.5992C153.929 22.0406 152.784 22.2455 151.546 22.2455L151.515 22.2298Z" fill="white"/>
<path d="M168.694 22.2296C167.378 22.2296 166.218 21.9774 165.23 21.4886C164.243 20.9999 163.475 20.2431 162.942 19.2499C162.393 18.2567 162.126 17.0269 162.126 15.5292V6.46387H164.227V15.2927C164.227 16.9639 164.634 18.2094 165.45 19.0607C166.265 19.8963 167.425 20.322 168.898 20.322C169.98 20.322 170.92 20.1013 171.72 19.644C172.519 19.2026 173.13 18.5562 173.554 17.6891C173.977 16.8377 174.196 15.813 174.196 14.6305V6.46387H176.297V22.072H174.29V17.7837L174.619 18.5562C174.118 19.7071 173.365 20.6058 172.331 21.2522C171.296 21.8985 170.089 22.2139 168.71 22.2139L168.694 22.2296Z" fill="white"/>
<path d="M186.094 22.2299C184.808 22.2299 183.601 22.0407 182.457 21.6781C181.313 21.3155 180.419 20.8583 179.761 20.2907L180.701 18.6196C181.328 19.0925 182.144 19.5024 183.131 19.8493C184.119 20.1961 185.153 20.3696 186.235 20.3696C187.708 20.3696 188.774 20.1331 189.432 19.6759C190.091 19.2029 190.404 18.588 190.404 17.8155C190.404 17.2322 190.216 16.7907 189.856 16.4597C189.495 16.1286 189.009 15.8921 188.429 15.7187C187.849 15.5452 187.175 15.4033 186.454 15.293C185.717 15.1669 184.996 15.0407 184.275 14.8831C183.554 14.7254 182.896 14.4889 182.3 14.1894C181.705 13.8898 181.234 13.4642 180.874 12.9281C180.513 12.3921 180.325 11.6826 180.325 10.784C180.325 9.88533 180.56 9.1601 181.031 8.49794C181.501 7.82001 182.191 7.28398 183.115 6.9056C184.04 6.52722 185.153 6.32227 186.47 6.32227C187.473 6.32227 188.476 6.44839 189.495 6.71641C190.498 6.98443 191.329 7.33127 191.987 7.77272L191.078 9.47542C190.389 9.00245 189.652 8.6556 188.852 8.45064C188.053 8.24569 187.269 8.13533 186.486 8.13533C185.09 8.13533 184.056 8.37181 183.398 8.86055C182.739 9.34929 182.41 9.96416 182.41 10.7209C182.41 11.32 182.598 11.7772 182.959 12.1241C183.319 12.4551 183.805 12.7232 184.416 12.9124C185.012 13.1015 185.686 13.2592 186.392 13.3696C187.113 13.4799 187.834 13.6376 188.555 13.7952C189.276 13.9529 189.934 14.1894 190.53 14.4732C191.125 14.757 191.611 15.1669 191.987 15.6871C192.348 16.2074 192.536 16.9011 192.536 17.7524C192.536 18.6669 192.285 19.4551 191.784 20.1173C191.282 20.7795 190.545 21.2997 189.589 21.6624C188.633 22.025 187.473 22.2142 186.109 22.2142L186.094 22.2299Z" fill="white"/>
<path d="M202.207 22.2298C200.593 22.2298 199.166 21.8829 197.944 21.205C196.721 20.5271 195.765 19.5811 195.075 18.3829C194.386 17.1847 194.041 15.8131 194.041 14.2681C194.041 12.723 194.37 11.3514 195.028 10.169C195.687 8.97077 196.596 8.04059 197.74 7.36267C198.9 6.68474 200.185 6.33789 201.627 6.33789C203.07 6.33789 204.386 6.66897 205.515 7.33113C206.643 7.9933 207.537 8.92348 208.195 10.1217C208.854 11.3199 209.167 12.7073 209.167 14.2681C209.167 14.3627 209.167 14.473 209.167 14.5834C209.167 14.6937 209.167 14.8041 209.167 14.9302H195.655V13.3537H208.039L207.208 13.9843C207.208 12.8492 206.957 11.8559 206.487 10.9573C206.016 10.0586 205.358 9.38068 204.527 8.89194C203.697 8.38744 202.74 8.15095 201.659 8.15095C200.577 8.15095 199.637 8.40321 198.79 8.89194C197.944 9.38068 197.285 10.0744 196.815 10.973C196.345 11.8717 196.11 12.8807 196.11 14.0316V14.3627C196.11 15.5451 196.376 16.6014 196.894 17.5001C197.411 18.3987 198.148 19.1082 199.088 19.6127C200.013 20.1172 201.095 20.3694 202.301 20.3694C203.242 20.3694 204.135 20.196 204.951 19.8649C205.766 19.5338 206.471 19.0136 207.067 18.3199L208.242 19.6915C207.553 20.5271 206.69 21.1577 205.656 21.5992C204.621 22.0406 203.477 22.2455 202.239 22.2455L202.207 22.2298Z" fill="white"/>
<path d="M242.555 22.0723V6.46416H244.561V10.7209L244.358 9.97992C244.796 8.79749 245.517 7.88308 246.552 7.25245C247.571 6.63758 248.856 6.32227 250.361 6.32227V8.37181C250.361 8.37181 250.204 8.37181 250.126 8.37181C250.048 8.37181 249.969 8.37181 249.891 8.37181C248.261 8.37181 246.975 8.87632 246.05 9.86956C245.126 10.8628 244.655 12.2975 244.655 14.1421V22.1196H242.555V22.0723Z" fill="white"/>
<path d="M260.033 22.2298C258.418 22.2298 256.992 21.8829 255.769 21.205C254.546 20.5271 253.59 19.5811 252.901 18.3829C252.211 17.1847 251.866 15.8131 251.866 14.2681C251.866 12.723 252.195 11.3514 252.853 10.169C253.512 8.97077 254.421 8.04059 255.565 7.36267C256.725 6.68474 258.011 6.33789 259.453 6.33789C260.895 6.33789 262.211 6.66897 263.34 7.33113C264.469 7.9933 265.362 8.92348 266.021 10.1217C266.679 11.3199 266.992 12.7073 266.992 14.2681C266.992 14.3627 266.992 14.473 266.992 14.5834C266.992 14.6937 266.992 14.8041 266.992 14.9302H253.481V13.3537H265.864L265.033 13.9843C265.033 12.8492 264.782 11.8559 264.312 10.9573C263.826 10.0744 263.183 9.38068 262.353 8.89194C261.522 8.38744 260.566 8.15095 259.484 8.15095C258.402 8.15095 257.462 8.40321 256.616 8.89194C255.769 9.38068 255.111 10.0744 254.64 10.973C254.17 11.8717 253.935 12.8807 253.935 14.0316V14.3627C253.935 15.5451 254.202 16.6014 254.719 17.5001C255.236 18.3987 255.973 19.1082 256.913 19.6127C257.838 20.1172 258.92 20.3694 260.127 20.3694C261.067 20.3694 261.961 20.196 262.776 19.8649C263.591 19.5338 264.296 19.0136 264.892 18.3199L266.068 19.6915C265.378 20.5271 264.516 21.1577 263.481 21.5992C262.447 22.0406 261.302 22.2455 260.064 22.2455L260.033 22.2298Z" fill="white"/>
<path d="M277.244 22.2298C275.708 22.2298 274.328 21.8829 273.121 21.205C271.914 20.5271 270.958 19.5811 270.268 18.3829C269.579 17.1847 269.234 15.8131 269.234 14.2681C269.234 12.723 269.579 11.3199 270.268 10.1374C270.958 8.95501 271.914 8.00906 273.121 7.3469C274.328 6.66897 275.708 6.33789 277.244 6.33789C278.561 6.33789 279.752 6.59014 280.818 7.11041C281.884 7.63068 282.714 8.40321 283.326 9.42798L281.758 10.5001C281.225 9.71176 280.567 9.12843 279.783 8.75005C278.999 8.37167 278.137 8.18249 277.212 8.18249C276.1 8.18249 275.112 8.43474 274.234 8.93924C273.341 9.44375 272.651 10.1532 272.134 11.0676C271.632 11.982 271.366 13.0541 271.366 14.2838C271.366 15.5136 271.632 16.5856 272.134 17.5001C272.651 18.4145 273.341 19.1239 274.234 19.6284C275.128 20.1329 276.115 20.3852 277.212 20.3852C278.137 20.3852 278.999 20.196 279.783 19.8176C280.567 19.4392 281.225 18.8717 281.758 18.0992L283.326 19.1712C282.714 20.1802 281.868 20.9528 280.818 21.473C279.752 21.9933 278.561 22.2613 277.244 22.2613V22.2298Z" fill="white"/>
<path d="M286.743 27.9999C286.022 27.9999 285.316 27.8738 284.658 27.6373C284 27.4008 283.435 27.0382 282.949 26.5652L283.921 24.9886C284.313 25.367 284.752 25.6666 285.207 25.8715C285.661 26.0765 286.194 26.1868 286.759 26.1868C287.448 26.1868 288.044 25.9977 288.545 25.6035C289.047 25.2094 289.533 24.5314 289.988 23.5697L290.991 21.2837L291.226 20.9526L297.621 6.46387H299.69L291.916 23.9639C291.477 24.9729 291.006 25.7769 290.473 26.376C289.956 26.9751 289.376 27.385 288.765 27.6373C288.154 27.8895 287.464 28.0157 286.727 28.0157L286.743 27.9999ZM290.881 22.5292L283.733 6.46387H285.928L292.26 20.8107L290.897 22.5292H290.881Z" fill="white"/>
<path d="M307.653 22.2298C306.117 22.2298 304.738 21.8829 303.531 21.205C302.324 20.5271 301.368 19.5811 300.678 18.3829C299.988 17.1847 299.643 15.8131 299.643 14.2681C299.643 12.723 299.988 11.3199 300.678 10.1374C301.368 8.95501 302.324 8.00906 303.531 7.3469C304.738 6.66897 306.117 6.33789 307.653 6.33789C308.97 6.33789 310.161 6.59014 311.227 7.11041C312.293 7.63068 313.124 8.40321 313.735 9.42798L312.168 10.5001C311.635 9.71176 310.976 9.12843 310.193 8.75005C309.409 8.37167 308.547 8.18249 307.622 8.18249C306.509 8.18249 305.521 8.43474 304.644 8.93924C303.75 9.44375 303.06 10.1532 302.543 11.0676C302.042 11.982 301.775 13.0541 301.775 14.2838C301.775 15.5136 302.042 16.5856 302.543 17.5001C303.06 18.4145 303.75 19.1239 304.644 19.6284C305.537 20.1329 306.525 20.3852 307.622 20.3852C308.547 20.3852 309.409 20.196 310.193 19.8176C310.976 19.4392 311.635 18.8717 312.168 18.0992L313.735 19.1712C313.124 20.1802 312.277 20.9528 311.227 21.473C310.161 21.9933 308.97 22.2613 307.653 22.2613V22.2298Z" fill="white"/>
<path d="M317.027 22.0721V0H319.127V22.0721H317.027Z" fill="white"/>
<path d="M331.025 22.2298C329.41 22.2298 327.984 21.8829 326.761 21.205C325.538 20.5271 324.582 19.5811 323.892 18.3829C323.203 17.1847 322.858 15.8131 322.858 14.2681C322.858 12.723 323.187 11.3514 323.845 10.169C324.504 8.97077 325.413 8.04059 326.557 7.36267C327.717 6.68474 329.003 6.33789 330.445 6.33789C331.887 6.33789 333.203 6.66897 334.332 7.33113C335.461 7.9933 336.354 8.92348 337.012 10.1217C337.671 11.3199 337.984 12.7073 337.984 14.2681C337.984 14.3627 337.984 14.473 337.984 14.5834C337.984 14.6937 337.984 14.8041 337.984 14.9302H324.472V13.3537H336.856L336.025 13.9843C336.025 12.8492 335.774 11.8559 335.304 10.9573C334.834 10.0586 334.175 9.38068 333.344 8.89194C332.514 8.38744 331.558 8.15095 330.476 8.15095C329.394 8.15095 328.454 8.40321 327.607 8.89194C326.761 9.38068 326.103 10.0744 325.632 10.973C325.162 11.8717 324.927 12.8807 324.927 14.0316V14.3627C324.927 15.5451 325.193 16.6014 325.711 17.5001C326.228 18.3987 326.965 19.1082 327.905 19.6127C328.83 20.1172 329.912 20.3694 331.119 20.3694C332.059 20.3694 332.953 20.196 333.768 19.8649C334.583 19.5338 335.288 19.0136 335.884 18.3199L337.059 19.6915C336.37 20.5271 335.508 21.1577 334.473 21.5992C333.439 22.0406 332.294 22.2455 331.056 22.2455L331.025 22.2298Z" fill="white"/>
<path d="M225.359 22.0567C229.835 22.0567 233.463 18.4074 233.463 13.9058C233.463 9.40417 229.835 5.75488 225.359 5.75488C220.884 5.75488 217.255 9.40417 217.255 13.9058C217.255 18.4074 220.884 22.0567 225.359 22.0567Z" fill="#5CA845"/>
<path d="M117.077 22.0567C121.552 22.0567 125.181 18.4074 125.181 13.9058C125.181 9.40417 121.552 5.75488 117.077 5.75488C112.601 5.75488 108.973 9.40417 108.973 13.9058C108.973 18.4074 112.601 22.0567 117.077 22.0567Z" fill="#5CA845"/>
</g>
<defs>
<clipPath id="clip0_49_237">
<rect width="338" height="28" fill="white"/>
</clipPath>
</defs>
</svg>
