<svg width="214" height="42" viewBox="0 0 214 42" fill="none" xmlns="http://www.w3.org/2000/svg">
<g clip-path="url(#clip0_46_67)">
<path d="M137.66 14.6156C136.457 14.6274 135.263 14.818 134.115 15.1789V6.25879H127.229V32.6889C129.943 33.6186 132.794 34.0791 135.661 34.0509C143.297 34.0509 147.513 30.6711 147.513 23.6291C147.497 17.8864 143.5 14.6156 137.66 14.6156ZM136.098 29.5916C135.423 29.6002 134.751 29.5155 134.1 29.3413V19.3111C134.795 19.0585 135.53 18.9259 136.27 18.9196C139.018 18.9196 140.61 20.797 140.61 24.1148C140.61 27.4326 138.971 29.5916 136.113 29.5916H136.097H136.098Z" fill="white"/>
<path d="M158.521 14.3027C155.492 14.3129 152.487 14.8417 149.637 15.8679L151.307 19.7019C153.361 19.0013 155.509 18.6106 157.678 18.5439C160.02 18.5439 161.27 19.2484 161.27 20.7343V21.4694C154.477 21.7825 148.388 22.9404 148.388 27.9167C148.388 31.9226 151.886 34.1765 158.99 34.1765C161.967 34.2377 164.931 33.7764 167.75 32.8146V21.3604C167.734 16.3841 164.643 14.3027 158.522 14.3027H158.521ZM161.27 29.7949C160.451 29.9863 159.612 30.0805 158.772 30.0766C156.321 30.0766 154.774 29.2473 154.774 27.7135C154.774 25.491 157.57 25.1317 161.286 24.9904L161.27 29.7941L161.27 29.7949Z" fill="white"/>
<path d="M179.758 14.303C176.571 14.3148 173.407 14.8436 170.388 15.8682V33.7077H177.274V19.3099C178.042 19.0142 178.856 18.8557 179.678 18.8408C182.146 18.8408 183.035 19.874 183.035 21.4384V33.6284H189.921V20.7809C189.89 16.6966 186.798 14.3022 179.756 14.3022L179.758 14.303Z" fill="white"/>
<path d="M213.422 14.8506H205.662L199.432 22.8937H199.354V6.2749H192.561V33.6284H199.354V24.2556H199.432L206.318 33.6284H214L206.412 23.5982L213.422 14.8506Z" fill="white"/>
<path d="M114.019 28.1986L109.459 14.8506H101.964L110.443 33.6284L107.055 41.1238H114.285L126.042 14.8506H118.547L114.019 28.1986Z" fill="white"/>
<path d="M70.454 8.40332L65.1604 23.9889L59.8667 8.40332H51.8566L48.2188 33.6284H54.7767L56.8536 16.2902L62.9903 33.6284H67.3312L73.4672 16.2902L75.544 33.6284H82.1027L78.4641 8.40332H70.454Z" fill="white"/>
<path d="M93.1111 14.3027C90.0877 14.3702 87.0917 14.8974 84.2257 15.8679L85.8807 19.6234C87.9404 18.9213 90.0924 18.5306 92.2671 18.4655C94.6094 18.4655 95.8589 19.17 95.8589 20.6559V21.391C89.0661 21.704 82.9763 22.862 82.9763 27.8383C82.9763 31.8441 86.4741 34.0981 93.5792 34.0981C96.5556 34.1585 99.5202 33.698 102.339 32.7369V21.3604C102.324 16.3841 99.2478 14.3027 93.1111 14.3027ZM95.8589 29.7322C95.04 29.9236 94.2016 30.0177 93.3608 30.0138C90.9097 30.0138 89.3636 29.1846 89.3636 27.6508C89.3636 25.429 92.1583 25.0689 95.8745 24.9285L95.8589 29.7322Z" fill="white"/>
<path d="M20.9553 0C9.38165 0 0 9.40185 0 21.0004C0 32.5989 9.38165 42.0008 20.9553 42.0008C32.5289 42.0008 41.9105 32.5989 41.9105 21.0004C41.9105 9.40185 32.5281 0 20.9553 0ZM20.9553 40.3258C10.3046 40.3258 1.67138 31.6732 1.67138 21.0004C1.67138 10.3276 10.3046 1.67419 20.9553 1.67419C31.6059 1.67419 40.2391 10.3268 40.2391 20.9996C40.2478 31.6646 31.6278 40.3164 20.9866 40.325H20.9553V40.3258Z" fill="white"/>
<path d="M12.6006 20.0455C11.5234 17.9641 9.30564 20.9375 9.05591 22.7529C9.77378 21.4075 11.1015 19.6548 12.6006 20.0455Z" fill="white"/>
<path d="M9.36914 20.0614C9.92418 19.2094 10.7407 18.5613 11.6958 18.2146C10.9309 17.6984 9.80675 18.3393 9.36914 20.0614Z" fill="white"/>
<path d="M13.1323 22.8309C13.8971 22.1735 13.8196 21.2658 12.6328 20.8908C11.7427 20.6719 9.83806 22.2676 9.63452 24.0203C10.3837 23.0655 12.5859 21.2658 13.1323 22.8309Z" fill="white"/>
<path d="M26.9825 20.906C24.6715 17.7765 28.2632 15.6167 23.6718 11.9082C26.1081 15.7265 22.251 19.435 22.6721 21.7667C23.0941 24.0983 25.2955 25.1464 25.1702 27.4318C28.1059 23.4565 23.6084 21.172 24.9361 19.4044C25.4559 20.0956 26.1676 20.6181 26.9817 20.9068L26.9825 20.906Z" fill="white"/>
<path d="M17.7542 9.10742C17.5514 10.1242 15.0526 10.3282 14.4905 11.8305C15.8487 10.6412 17.6133 11.1103 18.847 9.92098C19.2377 9.48321 18.3006 9.10742 17.7542 9.10742Z" fill="white"/>
<path d="M14.3965 16.0239C14.6524 15.4661 15.0313 14.9742 15.505 14.5843C15.9418 14.8973 16.7231 14.6942 17.769 13.5362C17.769 13.5362 17.8786 13.5362 17.8629 13.5362C17.0354 16.3997 14.9116 16.8697 14.2399 16.6657C14.6618 17.2761 17.3627 17.6675 17.675 16.4625C18.4399 13.7394 21.0632 12.5657 18.7992 12.6128C19.4082 11.8926 21.4695 11.2202 21.922 10.7032C22.3745 10.187 21.8593 9.38914 19.7511 9.0918C22.0308 10.2027 18.3616 10.4373 18.1894 12.3625C16.9869 12.8474 16.0342 12.0495 15.4416 12.5971C14.8482 13.1447 14.1921 12.7689 14.3957 12.1593C13.9815 12.408 13.8477 12.947 14.0958 13.362C14.1945 13.526 14.3432 13.6531 14.5201 13.7245C14.6603 13.7245 14.7699 13.912 14.6759 14.0218C13.9729 14.7255 13.63 15.3359 14.3949 16.0247L14.3965 16.0239ZM16.2862 13.0819H17.3634C16.77 13.395 16.489 14.1458 16.1923 14.1301C15.8956 14.1144 15.8643 13.8955 15.833 13.5825C16.0357 14.083 16.5978 13.8798 16.2855 13.0819H16.2862Z" fill="white"/>
<path d="M25.358 11.3609C25.4558 9.86405 24.8835 8.40168 23.7962 7.37081C23.3742 7.13623 22.7659 8.74766 22.9687 9.34234C23.8776 9.86876 24.6863 10.5521 25.358 11.3609Z" fill="white"/>
<path d="M11.8045 13.6138C12.4919 11.345 13.2254 10.6718 16.1924 9.38913C17.6845 8.5795 19.2987 8.01934 20.9709 7.73063C20.9106 8.04131 20.8057 8.34178 20.6585 8.62264C21.2527 8.65324 21.7733 8.22646 21.861 7.63649C22.236 5.97798 22.8137 3.78678 23.9222 4.69449C25.8269 6.5907 26.8712 9.18751 26.8109 11.8769C26.5275 12.0016 26.2042 12.0016 25.9208 11.8769C26.9354 13.8955 30.293 14.8189 29.5282 12.1272C30.9491 13.1447 33.2913 14.4745 33.6037 17.6511C34.4351 15.1131 33.7086 12.3225 31.7452 10.5149C32.6713 10.6075 33.5638 10.9127 34.3529 11.407C32.8201 9.63391 30.8575 8.28608 28.6538 7.49449C27.5617 6.08468 26.2606 4.84982 24.7967 3.83307C23.5942 2.84691 22.6571 2.92536 22.1733 3.67695C21.6809 4.62231 21.3279 5.63436 21.1275 6.68171L20.3 6.79154C19.8483 6.06742 19.1398 5.54257 18.317 5.32054C18.036 5.32054 18.0673 6.5099 17.8951 7.51096C11.2276 10.1242 11.4303 11.2508 10.7907 12.9093C8.47977 14.1975 6.65339 16.2099 5.59106 18.6364C7.33055 16.5872 9.43876 14.8832 11.8061 13.6131L11.8045 13.6138Z" fill="white"/>
<path d="M23.4221 13.3012C22.6581 12.7441 21.6498 12.6539 20.7988 13.0666C19.5807 14.1618 20.2054 16.1961 19.7835 17.5267C19.0899 17.0128 18.1121 17.1603 17.6001 17.8554C17.5884 17.8711 17.5774 17.8868 17.5664 17.9024C16.9887 18.5756 16.8016 19.608 15.1302 19.2016C13.4596 18.7945 14.5525 15.9152 11.5698 17.4333C14.0522 17.2144 12.4912 18.7788 13.4126 20.1093C13.8604 20.8797 14.8077 21.2006 15.6297 20.8601C16.9315 20.5918 18.2514 21.2336 18.8464 22.4245C19.2057 21.3332 18.6139 20.1564 17.5242 19.7963C17.5069 19.7908 17.4897 19.7853 17.4725 19.7798C19.3928 17.0567 21.1104 22.3931 20.4865 25.1782C21.9715 23.0325 21.9715 20.1886 20.4865 18.0429C21.0799 14.5376 22.3136 13.2698 23.4221 13.3012Z" fill="white"/>
<path d="M34.3521 18.3557C31.2293 21.4852 36.1323 29.0121 28.9497 34.004C30.0371 31.6269 30.4473 28.9948 30.1365 26.3988C30.5655 26.6396 30.9178 26.9982 31.1511 27.432C31.8454 24.9168 31.6865 22.2415 30.6986 19.8267C31.274 19.9507 31.8102 20.2135 32.2604 20.594C32.4318 16.2124 29.2464 15.8994 28.6373 14.6943C28.6373 15.9778 30.1991 17.0573 30.4019 18.7158C29.684 18.3298 28.8722 18.1557 28.0596 18.2145C29.6738 20.099 30.4418 22.5671 30.1835 25.0376C29.5611 24.4578 28.7649 24.1001 27.9195 24.0209C29.0444 26.1924 29.1023 28.7641 28.0752 30.9844C28.0463 30.2783 27.831 29.5926 27.4505 28.9971C27.0309 30.6313 25.7353 31.8936 24.0937 32.2679C25.25 31.1664 25.2969 29.3345 24.1978 28.175C23.9097 27.8713 23.5598 27.6336 23.1723 27.4791C21.3138 26.8373 18.9566 28.1051 18.0039 32.533C16.6613 32.9245 12.6477 32.0639 15.0369 29.4035C16.5048 29.8884 20.2366 27.3849 19.9869 25.648C19.5649 23.616 17.6743 22.2353 15.6147 22.4557C13.4438 22.4557 11.9768 24.5214 10.1966 25.3977C8.63479 25.1788 8.21362 24.9592 7.44799 22.9719C7.35405 21.7512 8.65045 20.9063 8.61913 19.6541C7.57325 19.873 7.30786 18.2773 5.24663 19.9358C5.09084 19.6384 5.35623 18.9347 5.35623 18.9347C4.86147 19.3662 4.53502 19.9593 4.43481 20.6089C4.86538 21.4617 5.52532 22.1772 6.33948 22.6746C7.55759 25.9296 8.80702 26.2897 10.087 26.3988C10.6678 27.1857 11.5094 27.7403 12.4606 27.9639C12.2625 27.0539 12.2257 26.1171 12.351 25.1945C14.9899 22.5499 16.9416 24.1621 17.1913 24.8658C14.849 25.3514 16.504 30.3583 12.632 28.1365C12.5185 29.0191 12.7119 29.9143 13.1784 30.6713C13.5691 34.1139 17.863 33.2689 19.2212 33.8008C19.0803 30.4681 20.9232 28.0267 22.5006 28.2299C24.078 28.4331 24.4992 31.0307 21.7976 33.4878C23.5684 33.6973 25.3556 33.2705 26.8415 32.2828C26.5855 34.2214 25.7901 36.0493 24.5462 37.5564C33.6178 35.6013 39.3913 26.6467 37.4397 17.5555C37.0882 15.9174 36.4948 14.3413 35.679 12.8789C37.2408 18.1839 36.7719 23.285 35.2109 26.3211C35.398 24.4123 33.7274 21.6108 34.3521 18.3557ZM6.94854 22.2211C6.35357 21.8053 5.84942 21.2726 5.46504 20.6568C5.76566 20.2959 6.16021 20.0244 6.60487 19.8746C7.02682 19.7648 7.29221 20.0001 7.24524 20.1249C7.19827 20.2496 6.80763 20.2653 6.69881 20.5783C6.58921 20.8913 7.07379 21.2201 7.18261 21.4389C7.33683 21.7088 7.24367 22.0532 6.97359 22.2078C6.96498 22.2125 6.95715 22.2172 6.94854 22.2211ZM10.7273 26.0081C10.9371 25.6511 11.28 25.3922 11.6801 25.2887C11.6519 25.9688 11.7255 26.649 11.8985 27.3073C11.8985 27.3073 10.743 26.6028 10.7273 26.0081ZM16.6457 26.8216C16.9424 26.8216 17.1921 27.0876 17.4731 26.8216C17.7542 26.5557 17.4731 25.8363 17.2547 25.5695C17.5045 25.5695 18.5511 25.5695 18.4885 26.0073C18.3632 26.9778 17.7542 27.2908 16.2715 28.0102C16.5369 27.8541 16.4899 27.3371 16.6465 26.8208L16.6457 26.8216ZM13.663 30.108C13.346 29.7934 13.1667 29.3659 13.1636 28.9187C13.5284 29.1337 13.9229 29.2913 14.3347 29.3878C14.175 29.6805 13.9441 29.9276 13.663 30.1073V30.108Z" fill="white"/>
</g>
<defs>
<clipPath id="clip0_46_67">
<rect width="214" height="42" fill="white"/>
</clipPath>
</defs>
</svg>
