<svg width="142" height="49" viewBox="0 0 142 49" fill="none" xmlns="http://www.w3.org/2000/svg">
<g clip-path="url(#clip0_46_43)">
<path d="M0 39.8745H6.42722V41.2253H1.56297V43.5568H6.06653V44.8325H1.56297V47.4441H6.51238V48.795H0V39.8795V39.8745Z" fill="white"/>
<path d="M7.75972 39.8745H9.62326L11.6471 43.0214L13.7661 39.8745H15.5145L12.5588 44.1671L15.7249 48.79H13.8263L11.602 45.3779L9.33772 48.79H7.54932L10.7153 44.1671L7.76473 39.8745H7.75972Z" fill="white"/>
<path d="M22.8234 42.7062C22.5579 41.6805 21.8966 40.9301 20.5992 40.9301C18.6855 40.9301 17.884 42.6161 17.884 44.3222C17.884 46.0282 18.6855 47.7242 20.5992 47.7242C21.9868 47.7242 22.7483 46.6836 22.8785 45.3878H24.4014C24.2762 47.5241 22.7633 48.995 20.5992 48.995C17.9191 48.995 16.321 46.8737 16.321 44.3222C16.321 41.7706 17.9191 39.6543 20.5992 39.6543C22.613 39.6693 24.201 40.78 24.3864 42.7012H22.8234V42.7062Z" fill="white"/>
<path d="M26.6506 39.8745H33.0779V41.2253H28.2136V43.5568H32.7172V44.8325H28.2136V47.4441H33.168V48.795H26.6556V39.8795L26.6506 39.8745Z" fill="white"/>
<path d="M35.5325 39.8745H41.9597V41.2253H37.1005V43.5568H41.604V44.8325H37.1005V47.4441H42.0499V48.795H35.5375V39.8795L35.5325 39.8745Z" fill="white"/>
<path d="M44.4146 39.8745H48.1166C50.8668 39.8745 52.0541 41.8707 52.0541 44.3272C52.0541 46.7837 50.8668 48.79 48.1166 48.79H44.4146V39.8745ZM45.9775 47.5142H47.5154C49.9651 47.5142 50.4911 46.1183 50.4911 44.3272C50.4911 42.5361 49.9651 41.1503 47.5154 41.1503H45.9775V47.5192V47.5142Z" fill="white"/>
<path d="M59.9891 45.2928L56.6377 39.8745H58.4511L60.8156 43.867L63.1401 39.8745H64.8884L61.552 45.2928V48.79H59.9891V45.2928Z" fill="white"/>
<path d="M73.7754 44.327C73.7754 46.8786 72.1773 48.9999 69.5023 48.9999C66.8272 48.9999 65.2241 46.8786 65.2241 44.327C65.2241 41.7755 66.8272 39.6592 69.5023 39.6592C72.1773 39.6592 73.7754 41.7855 73.7754 44.327ZM66.7871 44.327C66.7871 46.0381 67.5836 47.7291 69.5023 47.7291C71.4209 47.7291 72.2124 46.0431 72.2124 44.327C72.2124 42.611 71.4109 40.935 69.5023 40.935C67.5936 40.935 66.7871 42.621 66.7871 44.327Z" fill="white"/>
<path d="M75.6638 39.8745H77.2268V45.0677C77.2268 46.2684 77.3019 47.6543 79.3258 47.6543C81.3496 47.6543 81.4248 46.2684 81.4248 45.0677V39.8745H82.9877V45.583C82.9877 47.8644 81.525 49.0001 79.3258 49.0001C77.1266 49.0001 75.6638 47.8644 75.6638 45.583V39.8745Z" fill="white"/>
<path d="M85.4175 39.8745H89.6856C91.6343 39.8745 92.6362 40.7751 92.6362 42.281C92.6362 43.992 91.4439 44.4323 91.1634 44.5274V44.5524C91.6994 44.6274 92.4859 45.0277 92.4859 46.4385C92.4859 47.4742 92.6362 48.4197 92.9718 48.785H91.2987C91.0582 48.3947 91.0582 47.9094 91.0582 47.4742C91.0582 45.8382 90.7226 45.1177 89.2848 45.1177H86.9855V48.79H85.4225V39.8745H85.4175ZM86.9805 43.932H89.5453C90.5322 43.932 91.0682 43.4467 91.0682 42.5111C91.0682 41.3754 90.3318 41.1503 89.5153 41.1503H86.9754V43.932H86.9805Z" fill="white"/>
<path d="M98.2617 39.8745H99.8898L102.129 46.9288H102.154L104.443 39.8745H106.037L102.981 48.79H101.242L98.2617 39.8745Z" fill="white"/>
<path d="M107.645 39.8745H109.208V48.79H107.645V39.8745Z" fill="white"/>
<path d="M112.724 45.818C112.724 47.1938 113.736 47.7291 114.984 47.7291C116.361 47.7291 116.872 47.0537 116.872 46.3783C116.872 45.7029 116.497 45.4127 116.136 45.2776C115.51 45.0425 114.698 44.8774 113.471 44.5422C111.943 44.1269 111.492 43.2064 111.492 42.2808C111.492 40.4997 113.14 39.6592 114.753 39.6592C116.617 39.6592 118.18 40.6498 118.18 42.5109H116.617C116.542 41.3602 115.765 40.935 114.688 40.935C113.962 40.935 113.055 41.2001 113.055 42.1007C113.055 42.7261 113.476 43.0763 114.117 43.2514C114.252 43.2864 116.231 43.7967 116.692 43.9368C117.869 44.287 118.43 45.2876 118.43 46.2132C118.43 48.2094 116.652 49.0049 114.878 49.0049C112.84 49.0049 111.186 48.0293 111.151 45.818H112.714H112.724Z" fill="white"/>
<path d="M120.559 39.8745H122.122V48.79H120.559V39.8745Z" fill="white"/>
<path d="M132.717 44.327C132.717 46.8786 131.114 48.9999 128.439 48.9999C125.764 48.9999 124.161 46.8786 124.161 44.327C124.161 41.7755 125.759 39.6592 128.439 39.6592C131.119 39.6592 132.717 41.7855 132.717 44.327ZM125.729 44.327C125.729 46.0381 126.531 47.7291 128.444 47.7291C130.358 47.7291 131.159 46.0431 131.159 44.327C131.159 42.611 130.358 40.935 128.444 40.935C126.531 40.935 125.729 42.621 125.729 44.327Z" fill="white"/>
<path d="M134.761 39.8745H136.409L140.487 46.4435H140.512V39.8745H142V48.79H140.352L136.284 42.231H136.249V48.79H134.761V39.8745Z" fill="white"/>
<path d="M98.297 0C88.6737 0 83.1182 7.20441 83.1182 17.0704C83.1182 26.9365 88.6737 34.1409 98.297 34.1409C107.92 34.1409 113.476 26.9365 113.476 17.0704C113.476 7.20441 107.92 0 98.297 0ZM98.297 28.4024C92.1854 28.4024 89.8259 22.7839 89.8259 17.0755C89.8259 11.367 92.1854 5.74352 98.297 5.74352C104.409 5.74352 106.768 11.362 106.768 17.0755C106.768 22.789 104.409 28.4024 98.297 28.4024Z" fill="white"/>
<path d="M0 0.955566H24.1209V6.69908H6.71276V13.8485H22.9436V19.4519H6.71276V27.4418H24.1209V33.1903H0V0.955566Z" fill="white"/>
<path d="M26.9962 33.1903H33.704V23.5194H39.7805C47.9911 23.5194 53.5116 19.4869 53.5116 12.2375C53.5116 4.98803 47.9962 0.955566 39.7805 0.955566H26.9912V33.1903H26.9962ZM39.7855 17.7809H33.709V6.69908H39.7905C44.0086 6.69908 46.8139 8.53521 46.8139 12.2375C46.8139 15.9397 44.0086 17.7759 39.7905 17.7759L39.7855 17.7809Z" fill="white"/>
<path d="M122.904 0.955566H116.01V33.1903H122.583V20.1323C122.583 16.5651 122.453 13.3882 122.333 10.5915C123.109 12.2025 125.458 17.0504 126.556 18.8715L135.112 33.1903H142V0.955566H135.427V13.6884C135.427 17.2555 135.558 20.7577 135.678 23.5594C134.901 21.9484 132.552 17.1005 131.455 15.2793L122.904 0.955566Z" fill="white"/>
<path d="M61.1311 22.5238C61.1311 26.8564 64.738 28.5425 68.5753 28.5425C71.0851 28.5425 75.1528 27.812 75.1528 24.485C75.1528 20.9728 70.1783 20.3124 65.3842 19.0317C60.3547 17.7058 55.5155 15.8197 55.5155 9.84603C55.5155 3.19195 61.8174 0 67.7036 0C74.5066 0 80.7585 2.96682 80.7585 10.4864H74.0507C73.8203 6.56402 70.8095 5.56341 67.388 5.56341C65.1037 5.56341 62.2232 6.51899 62.2232 9.25567C62.2232 11.7622 63.8613 12.1524 72.0369 14.2487C74.4114 14.8391 81.8555 16.275 81.8555 23.6595C81.8555 29.6331 77.1566 34.1009 68.2948 34.1009C61.081 34.1009 54.3282 30.5437 54.4184 22.5188H61.1261L61.1311 22.5238Z" fill="white"/>
</g>
<defs>
<clipPath id="clip0_46_43">
<rect width="142" height="49" fill="white"/>
</clipPath>
</defs>
</svg>
