<svg width="237" height="38" viewBox="0 0 237 38" fill="none" xmlns="http://www.w3.org/2000/svg">
<g clip-path="url(#clip0_47_95)">
<path d="M40.2982 0.86377H0.866699V37.1361H40.2982V0.86377Z" stroke="white" stroke-width="1.94"/>
<path fill-rule="evenodd" clip-rule="evenodd" d="M5.83472 31.7931H26.9578L37.5282 20.0466L26.9578 7.18701H5.83472L15.2972 20.0466L5.83472 31.7931Z" stroke="white" stroke-width="0.97"/>
<path fill-rule="evenodd" clip-rule="evenodd" d="M37.5282 20.0464L26.9578 31.7928H5.83472L15.2972 20.0464" fill="white"/>
<path d="M37.5282 20.0464L26.9578 31.7928H5.83472L15.2972 20.0464" stroke="white" stroke-width="0.97"/>
<path d="M67.0059 13.9105C65.9158 12.6371 64.3431 11.9068 62.3148 11.9068C58.1778 11.9068 55.1309 15.2197 55.1309 19.7793C55.1309 24.339 58.1778 27.6518 62.1361 27.6518C64.3432 27.6518 66.1302 26.6811 67.2471 25.0247L71.8041 28.3732C69.7401 31.2764 66.2374 32.6211 62.8331 32.6211C55.0951 32.6211 49.448 27.6162 49.448 19.7793C49.448 11.9424 55.0862 6.9375 62.8331 6.9375C65.603 6.9375 69.1057 7.87258 71.2055 10.5264L67.0059 13.9105Z" fill="white"/>
<path d="M74.708 7.56104H80.1764V32.0068H74.708V7.56104Z" fill="white"/>
<path d="M85.1444 7.56104H93.4096L99.1193 23.5109H99.1907L104.936 7.56104H113.166V32.0068H107.697V13.2606H107.626L101.112 32.0157H96.948L90.6754 13.2606H90.6039V32.0157H85.1355V7.56104H85.1444Z" fill="white"/>
<path d="M118.214 7.56104H127.462C131.805 7.56104 136.531 8.4605 136.531 13.7771C136.531 16.5022 134.816 18.3724 132.26 19.165V19.2362C135.522 19.6548 137.693 22.0326 137.693 25.2118C137.693 30.3236 132.788 32.0157 128.374 32.0157H118.214V7.56104ZM123.683 17.3304H127.641C129.321 17.3304 131.072 16.6358 131.072 14.6677C131.072 12.6995 129.106 12.1118 127.391 12.1118H123.674V17.3304H123.683ZM123.683 27.4471H128.588C130.304 27.4471 132.234 26.7258 132.234 24.5796C132.234 22.2641 129.607 21.8901 127.82 21.8901H123.683V27.4471Z" fill="white"/>
<path d="M145.252 7.56104H152.4C156.18 7.56104 160.389 8.49612 160.389 14.0176C160.389 16.5022 158.879 18.506 155.939 19.0937V19.165C159.2 19.4054 161.47 21.7565 161.47 25.1762C161.47 30.8045 156.529 32.0157 153.169 32.0157H145.252V7.56104ZM147.566 18.1319H152.365C157.163 18.1319 158.074 15.5404 158.074 14.0265C158.074 10.6067 155.626 9.64494 152.677 9.64494H147.566V18.1408V18.1319ZM147.566 29.9407H152.856C158.289 29.9407 159.164 26.9751 159.164 25.2475C159.164 21.6229 156.153 20.2069 153.214 20.2069H147.575V29.9407H147.566Z" fill="white"/>
<path d="M174.926 7.56104H177.312L187.748 32.0068H185.157L182.459 25.5146H169.324L166.518 32.0068H164.097L174.917 7.56104H174.926ZM176.007 10.0457L170.226 23.4396H181.61L176.007 10.0457Z" fill="white"/>
<path d="M191.323 7.56104H194.298L209.399 28.97H209.47V7.56104H211.784V32.0068H208.809L193.708 10.5978H193.637V32.0068H191.323V7.56104Z" fill="white"/>
<path d="M218.566 7.56104H220.881V18.3368H221.095L233.113 7.56104H236.303L223.767 18.7464L237.009 32.0068H233.685L221.113 19.3698H220.899V32.0068H218.584V7.56104H218.566Z" fill="white"/>
</g>
<defs>
<clipPath id="clip0_47_95">
<rect width="237" height="38" fill="white"/>
</clipPath>
</defs>
</svg>
